<?xml version="1.0" encoding="UTF-8"?>
<svg xmlns="http://www.w3.org/2000/svg" xmlns:xlink="http://www.w3.org/1999/xlink" width="810pt" height="809.999993pt" viewBox="0 0 810 809.999993" version="1.2">
<defs>
<clipPath id="clip1">
  <path d="M 63 54.988281 L 741 54.988281 L 741 731 L 63 731 Z M 63 54.988281 "/>
</clipPath>
</defs>
<g id="surface1">
<g clip-path="url(#clip1)" clip-rule="nonzero">
<path style=" stroke:none;fill-rule:nonzero;fill:rgb(100%,100%,33.329773%);fill-opacity:1;" d="M 401.652344 54.988281 C 394.421875 54.984375 387.195312 55.214844 379.976562 55.675781 C 372.757812 56.136719 365.5625 56.828125 358.390625 57.75 C 351.214844 58.671875 344.078125 59.824219 336.980469 61.203125 C 329.878906 62.585938 322.832031 64.191406 315.835938 66.023438 C 308.839844 67.855469 301.90625 69.910156 295.042969 72.1875 C 288.179688 74.464844 281.394531 76.960938 274.691406 79.671875 C 267.984375 82.386719 261.375 85.308594 254.859375 88.445312 C 248.34375 91.582031 241.933594 94.925781 235.632812 98.472656 C 229.332031 102.023438 223.148438 105.769531 217.089844 109.710938 C 211.027344 113.65625 205.097656 117.792969 199.304688 122.117188 C 193.507812 126.441406 187.855469 130.949219 182.351562 135.636719 C 176.84375 140.324219 171.496094 145.183594 166.300781 150.214844 C 161.109375 155.246094 156.082031 160.4375 151.222656 165.789062 C 146.359375 171.144531 141.675781 176.648438 137.171875 182.300781 C 132.664062 187.953125 128.34375 193.746094 124.207031 199.679688 C 120.074219 205.609375 116.132812 211.667969 112.390625 217.851562 C 108.644531 224.035156 105.101562 230.332031 101.757812 236.742188 C 98.417969 243.15625 95.285156 249.667969 92.363281 256.28125 C 89.441406 262.890625 86.734375 269.589844 84.242188 276.375 C 81.75 283.164062 79.476562 290.023438 77.425781 296.953125 C 75.375 303.886719 73.546875 310.875 71.945312 317.925781 C 70.34375 324.972656 68.96875 332.066406 67.820312 339.203125 C 66.675781 346.339844 65.757812 353.507812 65.070312 360.703125 C 64.382812 367.898438 63.929688 375.109375 63.707031 382.335938 C 63.484375 389.5625 63.492188 396.785156 63.730469 404.011719 C 63.972656 411.234375 64.445312 418.445312 65.148438 425.640625 C 65.851562 432.832031 66.789062 439.996094 67.953125 447.132812 C 69.117188 454.265625 70.507812 461.355469 72.128906 468.402344 C 73.746094 475.445312 75.589844 482.433594 77.660156 489.359375 C 79.726562 496.285156 82.015625 503.140625 84.523438 509.917969 C 87.035156 516.699219 89.757812 523.390625 92.695312 529.996094 C 95.632812 536.601562 98.78125 543.105469 102.136719 549.507812 L 64.214844 700.945312 C 63.996094 701.832031 63.824219 702.726562 63.703125 703.632812 C 63.585938 704.539062 63.515625 705.449219 63.5 706.363281 C 63.484375 707.277344 63.519531 708.1875 63.609375 709.097656 C 63.695312 710.007812 63.835938 710.90625 64.023438 711.800781 C 64.214844 712.695312 64.453125 713.574219 64.746094 714.441406 C 65.035156 715.308594 65.371094 716.15625 65.757812 716.984375 C 66.144531 717.8125 66.578125 718.617188 67.054688 719.394531 C 67.53125 720.175781 68.050781 720.925781 68.617188 721.644531 C 69.179688 722.363281 69.78125 723.050781 70.421875 723.703125 C 71.0625 724.355469 71.738281 724.96875 72.449219 725.542969 C 73.15625 726.117188 73.898438 726.652344 74.667969 727.144531 C 75.441406 727.632812 76.238281 728.082031 77.058594 728.480469 C 77.878906 728.882812 78.722656 729.234375 79.582031 729.539062 C 80.445312 729.84375 81.320312 730.101562 82.210938 730.304688 C 83.101562 730.511719 84.003906 730.667969 84.910156 730.769531 C 85.820312 730.875 86.730469 730.925781 87.644531 730.925781 C 89.625 730.929688 91.574219 730.6875 93.492188 730.203125 L 245.011719 692.300781 C 250.667969 695.265625 256.40625 698.066406 262.222656 700.703125 C 268.035156 703.34375 273.921875 705.8125 279.878906 708.121094 C 285.835938 710.425781 291.851562 712.558594 297.929688 714.523438 C 304.003906 716.488281 310.132812 718.277344 316.3125 719.898438 C 322.488281 721.515625 328.707031 722.957031 334.96875 724.21875 C 341.230469 725.484375 347.519531 726.574219 353.84375 727.480469 C 360.164062 728.390625 366.507812 729.121094 372.871094 729.671875 C 379.234375 730.21875 385.605469 730.589844 391.992188 730.777344 C 398.375 730.96875 404.757812 730.976562 411.144531 730.800781 C 417.527344 730.628906 423.902344 730.277344 430.269531 729.742188 C 436.632812 729.210938 442.976562 728.496094 449.300781 727.601562 C 455.625 726.710938 461.917969 725.640625 468.183594 724.390625 C 474.445312 723.140625 480.667969 721.714844 486.851562 720.113281 C 493.035156 718.511719 499.164062 716.734375 505.246094 714.785156 C 511.328125 712.839844 517.351562 710.71875 523.3125 708.429688 C 529.273438 706.136719 535.167969 703.679688 540.988281 701.058594 C 546.8125 698.433594 552.554688 695.648438 558.21875 692.699219 C 563.886719 689.75 569.460938 686.644531 574.949219 683.378906 C 580.4375 680.113281 585.828125 676.695312 591.125 673.125 C 596.417969 669.554688 601.609375 665.839844 606.691406 661.976562 C 611.777344 658.109375 616.746094 654.105469 621.601562 649.960938 C 626.460938 645.816406 631.195312 641.535156 635.808594 637.121094 C 640.425781 632.710938 644.910156 628.167969 649.265625 623.5 C 653.625 618.832031 657.84375 614.046875 661.929688 609.140625 C 666.015625 604.234375 669.957031 599.214844 673.757812 594.085938 C 677.558594 588.957031 681.210938 583.722656 684.71875 578.386719 C 688.222656 573.046875 691.570312 567.617188 694.769531 562.089844 C 697.964844 556.5625 701 550.953125 703.878906 545.253906 C 706.757812 539.554688 709.472656 533.78125 712.023438 527.925781 C 714.574219 522.074219 716.957031 516.15625 719.171875 510.167969 C 721.386719 504.179688 723.429688 498.136719 725.300781 492.035156 C 727.175781 485.929688 728.871094 479.78125 730.394531 473.582031 C 731.917969 467.382812 733.265625 461.144531 734.4375 454.871094 C 735.605469 448.59375 736.597656 442.289062 737.410156 435.960938 C 738.222656 429.628906 738.855469 423.277344 739.308594 416.910156 C 739.761719 410.542969 740.03125 404.167969 740.125 397.785156 C 740.214844 391.402344 740.125 385.023438 739.855469 378.644531 C 739.585938 372.269531 739.132812 365.902344 738.503906 359.550781 C 737.871094 353.199219 737.0625 346.871094 736.070312 340.566406 C 735.082031 334.257812 733.914062 327.984375 732.566406 321.746094 C 731.222656 315.503906 729.699219 309.308594 728.003906 303.15625 C 726.304688 297 724.4375 290.898438 722.394531 284.851562 C 720.351562 278.804688 718.136719 272.820312 715.753906 266.894531 C 713.371094 260.972656 710.824219 255.125 708.109375 249.34375 C 705.394531 243.566406 702.519531 237.871094 699.484375 232.253906 C 696.445312 226.640625 693.253906 221.113281 689.902344 215.679688 C 686.554688 210.246094 683.050781 204.910156 679.398438 199.671875 C 675.746094 194.4375 671.949219 189.308594 668.003906 184.285156 C 664.0625 179.265625 659.976562 174.359375 655.757812 169.570312 C 651.535156 164.777344 647.179688 160.113281 642.695312 155.570312 C 638.210938 151.023438 633.597656 146.613281 628.863281 142.328125 C 624.125 138.046875 619.269531 133.902344 614.300781 129.894531 C 609.328125 125.886719 604.246094 122.023438 599.058594 118.304688 C 593.867188 114.585938 588.574219 111.015625 583.183594 107.59375 C 577.789062 104.175781 572.304688 100.910156 566.726562 97.800781 C 561.148438 94.691406 555.488281 91.742188 549.742188 88.953125 C 543.996094 86.164062 538.175781 83.539062 532.285156 81.078125 C 526.390625 78.621094 520.429688 76.328125 514.40625 74.207031 C 508.382812 72.085938 502.304688 70.136719 496.171875 68.359375 C 490.035156 66.582031 483.855469 64.976562 477.628906 63.550781 C 471.40625 62.121094 465.144531 60.871094 458.847656 59.800781 C 452.554688 58.726562 446.230469 57.832031 439.886719 57.117188 C 433.539062 56.402344 427.175781 55.867188 420.800781 55.511719 C 414.421875 55.15625 408.039062 54.984375 401.652344 54.988281 Z M 401.652344 54.988281 "/>
</g>
<path style=" stroke:none;fill-rule:nonzero;fill:rgb(100%,33.329773%,33.329773%);fill-opacity:1;" d="M 573.65625 292.074219 C 572.027344 290.972656 570.339844 289.976562 568.589844 289.082031 C 566.839844 288.1875 565.042969 287.40625 563.199219 286.730469 C 561.351562 286.054688 559.472656 285.496094 557.558594 285.050781 C 555.644531 284.605469 553.710938 284.277344 551.757812 284.066406 C 549.804688 283.859375 547.84375 283.769531 545.878906 283.796875 C 543.914062 283.828125 541.960938 283.976562 540.011719 284.242188 C 538.066406 284.511719 536.144531 284.894531 534.242188 285.398438 C 532.34375 285.902344 530.480469 286.515625 528.65625 287.246094 L 441 322.273438 C 439.886719 322.71875 438.8125 323.242188 437.773438 323.847656 C 436.738281 324.453125 435.753906 325.132812 434.820312 325.882812 C 433.882812 326.636719 433.011719 327.453125 432.195312 328.335938 C 431.382812 329.21875 430.640625 330.15625 429.96875 331.148438 C 429.292969 332.140625 428.699219 333.175781 428.179688 334.257812 C 427.660156 335.339844 427.226562 336.453125 426.875 337.601562 C 426.519531 338.746094 426.253906 339.914062 426.078125 341.097656 C 425.898438 342.285156 425.808594 343.476562 425.808594 344.675781 L 425.808594 441.238281 C 425.808594 442.4375 425.894531 443.632812 426.074219 444.820312 C 426.25 446.007812 426.515625 447.175781 426.867188 448.320312 C 427.21875 449.46875 427.65625 450.585938 428.171875 451.667969 C 428.691406 452.75 429.289062 453.789062 429.960938 454.78125 C 430.632812 455.777344 431.378906 456.714844 432.191406 457.597656 C 433.003906 458.480469 433.878906 459.296875 434.8125 460.050781 C 435.75 460.804688 436.734375 461.484375 437.773438 462.089844 C 438.808594 462.695312 439.886719 463.21875 441 463.664062 L 528.632812 498.695312 C 529.546875 499.058594 530.46875 499.394531 531.398438 499.703125 C 532.332031 500.011719 533.273438 500.292969 534.222656 500.542969 C 535.171875 500.792969 536.128906 501.015625 537.09375 501.210938 C 538.054688 501.402344 539.023438 501.566406 539.996094 501.699219 C 540.96875 501.832031 541.945312 501.9375 542.925781 502.011719 C 543.90625 502.085938 544.886719 502.128906 545.867188 502.144531 C 546.851562 502.160156 547.832031 502.144531 548.8125 502.097656 C 549.792969 502.050781 550.773438 501.976562 551.75 501.871094 C 552.726562 501.765625 553.699219 501.632812 554.667969 501.46875 C 555.636719 501.304688 556.597656 501.109375 557.554688 500.886719 C 558.511719 500.664062 559.460938 500.414062 560.402344 500.132812 C 561.34375 499.851562 562.273438 499.542969 563.195312 499.203125 C 564.121094 498.867188 565.03125 498.5 565.929688 498.105469 C 566.832031 497.714844 567.71875 497.292969 568.59375 496.847656 C 569.464844 496.398438 570.328125 495.925781 571.171875 495.425781 C 572.019531 494.925781 572.847656 494.398438 573.660156 493.851562 C 574.472656 493.300781 575.269531 492.726562 576.046875 492.125 C 576.828125 491.527344 577.585938 490.90625 578.328125 490.257812 C 579.066406 489.613281 579.785156 488.945312 580.488281 488.257812 C 581.1875 487.570312 581.863281 486.859375 582.519531 486.128906 C 583.175781 485.398438 583.8125 484.648438 584.421875 483.878906 C 585.03125 483.109375 585.617188 482.324219 586.179688 481.519531 C 586.742188 480.714844 587.28125 479.890625 587.792969 479.054688 C 588.304688 478.21875 588.792969 477.363281 589.253906 476.496094 C 589.714844 475.628906 590.148438 474.75 590.554688 473.855469 C 590.960938 472.960938 591.339844 472.058594 591.691406 471.140625 C 592.042969 470.222656 592.367188 469.296875 592.660156 468.359375 C 592.957031 467.421875 593.222656 466.480469 593.457031 465.527344 C 593.695312 464.574219 593.902344 463.613281 594.082031 462.648438 C 594.261719 461.683594 594.410156 460.714844 594.53125 459.738281 C 594.648438 458.765625 594.738281 457.789062 594.800781 456.808594 C 594.859375 455.828125 594.890625 454.847656 594.890625 453.863281 L 594.890625 332.050781 C 594.886719 330.085938 594.769531 328.128906 594.527344 326.175781 C 594.289062 324.226562 593.933594 322.296875 593.457031 320.390625 C 592.980469 318.484375 592.390625 316.613281 591.6875 314.777344 C 590.984375 312.941406 590.171875 311.15625 589.25 309.421875 C 588.328125 307.6875 587.304688 306.011719 586.179688 304.402344 C 585.050781 302.792969 583.832031 301.253906 582.515625 299.792969 C 581.203125 298.332031 579.804688 296.953125 578.324219 295.664062 C 576.839844 294.371094 575.285156 293.175781 573.65625 292.074219 Z M 573.65625 292.074219 "/>
<path style=" stroke:none;fill-rule:nonzero;fill:rgb(32.159424%,69.40918%,100%);fill-opacity:1;" d="M 256.726562 272.253906 L 425.808594 272.253906 C 427.390625 272.253906 428.96875 272.332031 430.542969 272.488281 C 432.117188 272.640625 433.679688 272.875 435.230469 273.183594 C 436.785156 273.492188 438.316406 273.875 439.832031 274.332031 C 441.34375 274.792969 442.832031 275.324219 444.292969 275.929688 C 445.757812 276.535156 447.183594 277.210938 448.582031 277.957031 C 449.976562 278.699219 451.332031 279.511719 452.648438 280.390625 C 453.960938 281.269531 455.230469 282.210938 456.453125 283.214844 C 457.675781 284.21875 458.847656 285.277344 459.96875 286.394531 C 461.085938 287.515625 462.148438 288.683594 463.152344 289.90625 C 464.15625 291.128906 465.097656 292.398438 465.976562 293.710938 C 466.855469 295.027344 467.667969 296.382812 468.414062 297.777344 C 469.15625 299.171875 469.832031 300.597656 470.4375 302.058594 C 471.042969 303.519531 471.578125 305.007812 472.035156 306.519531 C 472.496094 308.035156 472.878906 309.566406 473.1875 311.117188 C 473.496094 312.667969 473.730469 314.230469 473.882812 315.804688 C 474.039062 317.378906 474.117188 318.953125 474.117188 320.535156 L 474.117188 465.378906 C 474.117188 466.960938 474.039062 468.539062 473.882812 470.113281 C 473.730469 471.6875 473.496094 473.246094 473.1875 474.796875 C 472.878906 476.351562 472.496094 477.882812 472.035156 479.394531 C 471.578125 480.90625 471.042969 482.394531 470.4375 483.855469 C 469.832031 485.316406 469.15625 486.746094 468.414062 488.140625 C 467.667969 489.535156 466.855469 490.886719 465.976562 492.203125 C 465.097656 493.519531 464.15625 494.785156 463.152344 496.007812 C 462.148438 497.230469 461.085938 498.402344 459.96875 499.519531 C 458.847656 500.636719 457.675781 501.699219 456.453125 502.703125 C 455.230469 503.703125 453.960938 504.644531 452.648438 505.523438 C 451.332031 506.402344 449.976562 507.214844 448.582031 507.960938 C 447.183594 508.707031 445.757812 509.378906 444.292969 509.984375 C 442.832031 510.589844 441.34375 511.121094 439.832031 511.582031 C 438.316406 512.039062 436.785156 512.425781 435.230469 512.734375 C 433.679688 513.042969 432.117188 513.273438 430.542969 513.429688 C 428.96875 513.582031 427.390625 513.660156 425.808594 513.660156 L 256.726562 513.660156 C 255.144531 513.660156 253.566406 513.582031 251.992188 513.429688 C 250.417969 513.273438 248.855469 513.042969 247.300781 512.734375 C 245.75 512.425781 244.21875 512.039062 242.703125 511.582031 C 241.1875 511.121094 239.703125 510.589844 238.238281 509.984375 C 236.777344 509.378906 235.347656 508.707031 233.953125 507.960938 C 232.558594 507.214844 231.203125 506.402344 229.886719 505.523438 C 228.570312 504.644531 227.304688 503.703125 226.078125 502.703125 C 224.855469 501.699219 223.6875 500.636719 222.566406 499.519531 C 221.449219 498.402344 220.386719 497.230469 219.382812 496.007812 C 218.378906 494.785156 217.4375 493.519531 216.558594 492.203125 C 215.679688 490.886719 214.867188 489.535156 214.121094 488.140625 C 213.375 486.746094 212.699219 485.316406 212.09375 483.855469 C 211.488281 482.394531 210.957031 480.90625 210.496094 479.394531 C 210.039062 477.882812 209.65625 476.351562 209.347656 474.796875 C 209.039062 473.246094 208.804688 471.6875 208.648438 470.113281 C 208.496094 468.539062 208.417969 466.960938 208.417969 465.378906 L 208.417969 320.535156 C 208.417969 318.953125 208.496094 317.378906 208.648438 315.804688 C 208.804688 314.230469 209.039062 312.667969 209.347656 311.117188 C 209.65625 309.566406 210.039062 308.035156 210.496094 306.519531 C 210.957031 305.007812 211.488281 303.519531 212.09375 302.058594 C 212.699219 300.597656 213.375 299.171875 214.121094 297.777344 C 214.867188 296.382812 215.679688 295.027344 216.558594 293.710938 C 217.4375 292.398438 218.378906 291.128906 219.382812 289.90625 C 220.386719 288.683594 221.449219 287.515625 222.566406 286.394531 C 223.6875 285.277344 224.855469 284.21875 226.078125 283.214844 C 227.304688 282.210938 228.570312 281.269531 229.886719 280.390625 C 231.203125 279.511719 232.558594 278.699219 233.953125 277.957031 C 235.347656 277.210938 236.777344 276.535156 238.238281 275.929688 C 239.703125 275.324219 241.1875 274.792969 242.703125 274.332031 C 244.21875 273.875 245.75 273.492188 247.300781 273.183594 C 248.855469 272.875 250.417969 272.640625 251.992188 272.488281 C 253.566406 272.332031 255.144531 272.253906 256.726562 272.253906 Z M 256.726562 272.253906 "/>
</g>
</svg>
